<?xml version="1.0" encoding="utf-8"?>
<!DOCTYPE svg
  PUBLIC '-//W3C//DTD SVG 1.0//EN'
  'http://www.w3.org/TR/2001/REC-SVG-20010904/DTD/svg10.dtd'>
<svg width="540" height="250" preserveAspectRatio="xMinYMin meet" viewBox="0 0 540 250" xmlns="http://www.w3.org/2000/svg" version="1.0" fill-rule="evenodd" xmlns:xlink="http://www.w3.org/1999/xlink">
	<title>...</title>
	<desc>...</desc>
	<clipPath id="clip">
		<rect x="0" y="0" width="540" height="250"/>
	</clipPath>
	<g id="group" transform="scale(1,-1) translate(0,-250)" style="clip-path: url(#clip)">
		<g transform="">
			<path d="M 65,48 L 65,213 Z" style="stroke: rgb(90%,92%,93%); stroke-linecap: butt; stroke-width: 0.5;"/>
			<text x="62.775999999999996" y="33" style="font-family: Helvetica; font-size: 8px;fill: rgb(40%,46%,51%); stroke:none;" transform="translate(0,66) scale(1,-1)">0</text>
			<path d="M 156,48 L 156,213 Z" style="stroke: rgb(90%,92%,93%); stroke-linecap: butt; stroke-width: 0.5;"/>
			<text x="151.552" y="33" style="font-family: Helvetica; font-size: 8px;fill: rgb(40%,46%,51%); stroke:none;" transform="translate(0,66) scale(1,-1)">60</text>
			<path d="M 247,48 L 247,213 Z" style="stroke: rgb(90%,92%,93%); stroke-linecap: butt; stroke-width: 0.5;"/>
			<text x="240.328" y="33" style="font-family: Helvetica; font-size: 8px;fill: rgb(40%,46%,51%); stroke:none;" transform="translate(0,66) scale(1,-1)">120</text>
			<path d="M 338,48 L 338,213 Z" style="stroke: rgb(90%,92%,93%); stroke-linecap: butt; stroke-width: 0.5;"/>
			<text x="331.328" y="33" style="font-family: Helvetica; font-size: 8px;fill: rgb(40%,46%,51%); stroke:none;" transform="translate(0,66) scale(1,-1)">180</text>
			<path d="M 429,48 L 429,213 Z" style="stroke: rgb(90%,92%,93%); stroke-linecap: butt; stroke-width: 0.5;"/>
			<text x="422.328" y="33" style="font-family: Helvetica; font-size: 8px;fill: rgb(40%,46%,51%); stroke:none;" transform="translate(0,66) scale(1,-1)">240</text>
			<path d="M 520,48 L 520,213 Z" style="stroke: rgb(90%,92%,93%); stroke-linecap: butt; stroke-width: 0.5;"/>
			<text x="513.328" y="33" style="font-family: Helvetica; font-size: 8px;fill: rgb(40%,46%,51%); stroke:none;" transform="translate(0,66) scale(1,-1)">300</text>
			<path d="M 65,48 L 520,48 Z" style="stroke: rgb(90%,92%,93%); stroke-linecap: butt; stroke-width: 0.5;"/>
			<text x="36.983999999999995" y="45.0" style="font-family: Helvetica; font-size: 8px;fill: rgb(40%,46%,51%); stroke:none;" transform="translate(0,90) scale(1,-1)">3.329</text>
			<path d="M 65,103 L 520,103 Z" style="stroke: rgb(90%,92%,93%); stroke-linecap: butt; stroke-width: 0.5;"/>
			<text x="36.983999999999995" y="99.99999999999594" style="font-family: Helvetica; font-size: 8px;fill: rgb(40%,46%,51%); stroke:none;" transform="translate(0,199) scale(1,-1)">3.331</text>
			<path d="M 65,158 L 520,158 Z" style="stroke: rgb(90%,92%,93%); stroke-linecap: butt; stroke-width: 0.5;"/>
			<text x="36.983999999999995" y="155.00000000000406" style="font-family: Helvetica; font-size: 8px;fill: rgb(40%,46%,51%); stroke:none;" transform="translate(0,310) scale(1,-1)">3.333</text>
			<path d="M 65,213 L 520,213 Z" style="stroke: rgb(90%,92%,93%); stroke-linecap: butt; stroke-width: 0.5;"/>
			<text x="36.983999999999995" y="210.0" style="font-family: Helvetica; font-size: 8px;fill: rgb(40%,46%,51%); stroke:none;" transform="translate(0,420) scale(1,-1)">3.335</text>
			<path d="M 65,48 L 520,48 Z" style="stroke: rgb(14%,21%,27%); stroke-linecap: butt; stroke-width: 1;"/>
			<path d="M 65,48 L 65,213 Z" style="stroke: rgb(14%,21%,27%); stroke-linecap: butt; stroke-width: 1;"/>
			<text x="214.4745" y="9" style="font-family: Helvetica; font-size: 9px;fill: rgb(14%,21%,27%); stroke:none;" transform="translate(0,18) scale(1,-1)">Relative host receipt window (seconds)</text>
			<text x="65" y="234" style="font-family: Helvetica; font-size: 9px;fill: rgb(14%,21%,27%); stroke:none;" transform="translate(0,468) scale(1,-1)">Payload received per complete one-second window (decimal MB)</text>
			<polyline points="65.75833 189.46, 67.275 189.46, 68.79167 189.46, 70.30833 189.46, 71.825 189.46, 73.34167 76.82, 74.85833 189.46, 76.375 189.46, 77.89167 189.46, 79.40833 189.46, 80.925 76.82, 82.44167 189.46, 83.95833 189.46, 85.475 189.46, 86.99167 189.46, 88.50833 76.82, 90.025 189.46, 91.54167 189.46, 93.05833 189.46, 94.575 189.46, 96.09167 76.82, 97.60833 189.46, 99.125 189.46, 100.6417 189.46, 102.1583 189.46, 103.675 76.82, 105.1917 189.46, 106.7083 189.46, 108.225 189.46, 109.7417 189.46, 111.2583 76.82, 112.775 189.46, 114.2917 189.46, 115.8083 189.46, 117.325 189.46, 118.8417 76.82, 120.3583 189.46, 121.875 189.46, 123.3917 189.46, 124.9083 189.46, 126.425 76.82, 127.9417 189.46, 129.4583 189.46, 130.975 189.46, 132.4917 189.46, 134.0083 76.82, 135.525 189.46, 137.0417 189.46, 138.5583 189.46, 140.075 189.46, 141.5917 76.82, 143.1083 189.46, 144.625 189.46, 146.1417 189.46, 147.6583 76.82, 149.175 189.46, 150.6917 189.46, 152.2083 189.46, 153.725 189.46, 155.2417 189.46, 156.7583 76.82, 158.275 189.46, 159.7917 189.46, 161.3083 189.46, 162.825 76.82, 164.3417 189.46, 165.8583 189.46, 167.375 189.46, 168.8917 189.46, 170.4083 76.82, 171.925 189.46, 173.4417 189.46, 174.9583 189.46, 176.475 189.46, 177.9917 76.82, 179.5083 189.46, 181.025 189.46, 182.5417 189.46, 184.0583 189.46, 185.575 76.82, 187.0917 189.46, 188.6083 189.46, 190.125 189.46, 191.6417 189.46, 193.1583 76.82, 194.675 189.46, 196.1917 189.46, 197.7083 189.46, 199.225 189.46, 200.7417 76.82, 202.2583 189.46, 203.775 189.46, 205.2917 189.46, 206.8083 189.46, 208.325 76.82, 209.8417 189.46, 211.3583 189.46, 212.875 189.46, 214.3917 189.46, 215.9083 76.82, 217.425 189.46, 218.9417 189.46, 220.4583 189.46, 221.975 189.46, 223.4917 76.82, 225.0083 189.46, 226.525 189.46, 228.0417 189.46, 229.5583 189.46, 231.075 76.82, 232.5917 189.46, 234.1083 189.46, 235.625 189.46, 237.1417 189.46, 238.6583 76.82, 240.175 189.46, 241.6917 189.46, 243.2083 189.46, 244.725 189.46, 246.2417 76.82, 247.7583 189.46, 249.275 189.46, 250.7917 189.46, 252.3083 189.46, 253.825 76.82, 255.3417 189.46, 256.8583 189.46, 258.375 189.46, 259.8917 189.46, 261.4083 76.82, 262.925 189.46, 264.4417 189.46, 265.9583 189.46, 267.475 76.82, 268.9917 189.46, 270.5083 189.46, 272.025 189.46, 273.5417 189.46, 275.0583 189.46, 276.575 76.82, 278.0917 189.46, 279.6083 189.46, 281.125 189.46, 282.6417 76.82, 284.1583 189.46, 285.675 189.46, 287.1917 189.46, 288.7083 189.46, 290.225 189.46, 291.7417 76.82, 293.2583 189.46, 294.775 189.46, 296.2917 189.46, 297.8083 76.82, 299.325 189.46, 300.8417 189.46, 302.3583 189.46, 303.875 189.46, 305.3917 76.82, 306.9083 189.46, 308.425 189.46, 309.9417 189.46, 311.4583 189.46, 312.975 76.82, 314.4917 189.46, 316.0083 189.46, 317.525 189.46, 319.0417 189.46, 320.5583 76.82, 322.075 189.46, 323.5917 189.46, 325.1083 189.46, 326.625 189.46, 328.1417 76.82, 329.6583 189.46, 331.175 189.46, 332.6917 189.46, 334.2083 189.46, 335.725 76.82, 337.2417 189.46, 338.7583 189.46, 340.275 189.46, 341.7917 189.46, 343.3083 189.46, 344.825 76.82, 346.3417 189.46, 347.8583 189.46, 349.375 189.46, 350.8917 76.82, 352.4083 189.46, 353.925 189.46, 355.4417 189.46, 356.9583 189.46, 358.475 76.82, 359.9917 189.46, 361.5083 189.46, 363.025 189.46, 364.5417 189.46, 366.0583 76.82, 367.575 189.46, 369.0917 189.46, 370.6083 189.46, 372.125 189.46, 373.6417 76.82, 375.1583 189.46, 376.675 189.46, 378.1917 189.46, 379.7083 189.46, 381.225 76.82, 382.7417 189.46, 384.2583 189.46, 385.775 189.46, 387.2917 189.46, 388.8083 76.82, 390.325 189.46, 391.8417 189.46, 393.3583 189.46, 394.875 189.46, 396.3917 76.82, 397.9083 189.46, 399.425 189.46, 400.9417 189.46, 402.4583 189.46, 403.975 76.82, 405.4917 189.46, 407.0083 189.46, 408.525 189.46, 410.0417 189.46, 411.5583 76.82, 413.075 189.46, 414.5917 189.46, 416.1083 189.46, 417.625 76.82, 419.1417 189.46, 420.6583 189.46, 422.175 189.46, 423.6917 189.46, 425.2083 189.46, 426.725 76.82, 428.2417 189.46, 429.7583 189.46, 431.275 189.46, 432.7917 76.82, 434.3083 189.46, 435.825 189.46, 437.3417 189.46, 438.8583 189.46, 440.375 189.46, 441.8917 76.82, 443.4083 189.46, 444.925 189.46, 446.4417 189.46, 447.9583 189.46, 449.475 76.82, 450.9917 189.46, 452.5083 189.46, 454.025 189.46, 455.5417 189.46, 457.0583 76.82, 458.575 189.46, 460.0917 189.46, 461.6083 189.46, 463.125 189.46, 464.6417 76.82, 466.1583 189.46, 467.675 189.46, 469.1917 189.46, 470.7083 76.82, 472.225 189.46, 473.7417 189.46, 475.2583 189.46, 476.775 189.46, 478.2917 76.82, 479.8083 189.46, 481.325 189.46, 482.8417 189.46, 484.3583 189.46, 485.875 76.82, 487.3917 189.46, 488.9083 189.46, 490.425 189.46, 491.9417 189.46, 493.4583 76.82, 494.975 189.46, 496.4917 189.46, 498.0083 189.46, 499.525 189.46, 501.0417 76.82, 502.5583 189.46, 504.075 189.46, 505.5917 189.46, 507.1083 189.46, 508.625 76.82, 510.1417 189.46, 511.6583 189.46, 513.175 189.46, 514.6917 189.46, 516.2083 76.82, 517.725 189.46, 519.2417 189.46" style="stroke: rgb(9%,37%,50%); stroke-linecap: butt; stroke-width: 0.7; fill: None; fill-rule: evenodd;"/>
			<text x="413.528" y="219" style="font-family: Helvetica; font-size: 8px;fill: rgb(9%,37%,50%); stroke:none;" transform="translate(0,438) scale(1,-1)">Sixstream C: real receipt bins</text>
		</g>
	</g>
</svg>
